# xmcd
#
# Track frame offsets:
#	150
#	13777
#	27108
#	39302
#	51387
#	65854
#	77128
#	88234
#	106169
#	118889
#	133770
#	147771
#	162371
#	175820
#
# Disc length: 2535 seconds
#
# Revision: 0
# Processed by: cddbd v1.5.1PL2 Copyright (c) Steve Scherf et al.
# Submitted via: EasyCDDAExtractor 8.2.4.1
#
DISCID=c309e50e
DTITLE=Frank Sinatra and Friends 2 - The Best of Swing
DYEAR=2006
DGENRE=Swing
TTITLE0=Learning the blues
TTITLE1=Love me or leave me (Sammy Davies Jr)
TTITLE2=Walking in the sunshine
TTITLE3=Shake, Rattle and Love (Bill Haley)
TTITLE4=Meet me at the Copa
TTITLE5=Mambo italiano (Rosemary Clooney)
TTITLE6=I'm gonna sit right down and write myself a letter
TTITLE7=Singing in the rain (Gene Kelly)
TTITLE8=I can read between the lines
TTITLE9=Sentimental journey (Ella Fitzgerald)
TTITLE10=Melody of love
TTITLE11=Stranger in paradise (Tony Bennett)
TTITLE12=I'll be around
TTITLE13=Scarlet ribbons (Harry Belafonte)
EXTD=
EXTT0=
EXTT1=
EXTT2=
EXTT3=
EXTT4=
EXTT5=
EXTT6=
EXTT7=
EXTT8=
EXTT9=
EXTT10=
EXTT11=
EXTT12=
EXTT13=
PLAYORDER=
